<svg width="30" height="30" viewBox="0 0 30 30" fill="none" xmlns="http://www.w3.org/2000/svg">
<g clip-path="url(#clip0_529_43)">
<path d="M26.4 6.89999H3.6C3.27 6.89999 3 7.16999 3 7.49999V22.5C3 22.83 3.27 23.1 3.6 23.1H26.4C26.73 23.1 27 22.83 27 22.5V7.49999C27 7.16999 26.73 6.89999 26.4 6.89999ZM24.96 8.09999L15 18.06L5.04 8.09999H24.96ZM4.2 8.93999L10.26 15L4.2 21.06V8.93999ZM5.07 21.9L11.1 15.87L14.58 19.35C14.82 19.59 15.18 19.59 15.42 19.35L18.9 15.87L24.93 21.9H5.07ZM25.8 21.06L19.74 15L25.8 8.93999V21.06Z" fill="white"/>
<path d="M241.2 -153V352.2H-294V-153H241.2ZM243.6 -155.4H-296.4V354.6H243.6V-155.4Z" fill="#0000FF"/>
</g>
<defs>
<clipPath id="clip0_529_43">
<rect width="30" height="30" fill="white"/>
</clipPath>
</defs>
</svg>
